<svg xmlns="http://www.w3.org/2000/svg" width="1229" height="1024" viewBox="0 0 1229 1024" fill="currentColor" id="figures">
  <path d="M627.673 334.612c-42.85 0-77.666 34.343-77.666 76.603s34.855 76.642 77.666 76.642 77.666-34.383 77.666-76.642c.039-42.22-34.816-76.603-77.666-76.603zm0 110.434c-18.905 0-34.265-15.163-34.265-33.831 0-18.629 15.36-33.792 34.265-33.792s34.265 15.163 34.265 33.792c.039 18.668-15.36 33.831-34.265 33.831z"/>
  <path d="M922.191 89.167H103.464c-57.344 0-103.818 45.844-103.818 102.4v640.866c0 56.556 46.474 102.4 103.818 102.4h818.727c57.462 0 104.094-45.844 104.094-102.4V191.567c0-56.556-46.592-102.4-104.094-102.4zM42.732 666.27l215.473-212.559c15.124-14.887 39.385-15.518 55.257-1.339l277.071 247.375c33.044 29.46 83.574 28.199 115.082-2.836l72.586-71.601c14.336-14.139 37.218-15.518 53.169-3.111l149.701 116.5v86.567c0 36.943-30.444 66.914-68.017 66.914H110.711c-37.573 0-68.017-29.972-68.017-66.914V666.27zm815.577-77.667c-33.201-25.876-80.857-23.119-110.75 6.42l-72.586 71.601c-15.124 14.927-39.424 15.518-55.257 1.378L342.645 420.627c-33.044-29.46-83.574-28.239-115.082 2.836L42.77 605.735V197.001c0-36.943 30.444-66.914 68.017-66.914H913.13c37.573 0 68.017 29.972 68.017 66.914v487.148l-122.841-95.547z"/>
</svg>