<svg xmlns="http://www.w3.org/2000/svg" width="1024" height="1024" viewBox="0 0 1024 1024" fill="currentColor" id="info">
  <path d="M552.96 337.92c0 22.622-18.338 40.96-40.96 40.96s-40.96-18.338-40.96-40.96 18.338-40.96 40.96-40.96 40.96 18.338 40.96 40.96zm-13.653 119.467V430.08h-54.613V716.8h54.613v-27.307z"/>
  <path d="M512 0C228.693 0 0 228.693 0 512s228.693 512 512 512 512-228.693 512-512S795.307 0 512 0zm0 983.04C252.587 983.04 40.96 771.413 40.96 512S252.587 40.96 512 40.96 983.04 252.587 983.04 512 771.413 983.04 512 983.04z"/>
</svg>