<svg xmlns="http://www.w3.org/2000/svg" width="1024" height="1024" fill="currentColor" viewBox="0 0 1024 1024" id="references">
  <path d="M568.241 692.933c-49.743 0-99.486-18.905-137.334-56.793l28.83-28.83c59.865 59.865 157.223 59.825 217.088 0l256.788-256.788c59.825-59.825 59.825-157.223 0-217.088L885.8 85.621c-59.825-59.825-157.223-59.825-217.088 0L487.503 266.83 458.673 238 639.882 56.791c75.737-75.737 198.971-75.776 274.747 0l47.813 47.813c75.737 75.737 75.737 199.01 0 274.708L705.654 636.1c-37.849 37.888-87.631 56.832-137.413 56.832z"/>
  <path d="M241.979 1019.313c-51.87 0-100.667-20.204-137.374-56.911l-47.813-47.813c-75.737-75.776-75.737-199.01 0-274.708L313.58 383.054c75.737-75.737 199.01-75.737 274.747 0l47.813 47.813-28.83 28.83-47.813-47.813c-59.825-59.825-157.223-59.825-217.088 0L85.621 668.711c-59.825 59.825-59.825 157.223 0 217.088l47.813 47.813c28.987 28.987 67.545 44.938 108.544 44.938s79.557-15.951 108.544-44.938l170.89-170.89 28.83 28.83-170.89 170.89c-36.667 36.667-85.465 56.871-137.374 56.871z"/>
</svg>